<svg viewBox="0 0 209.07 33.852" xmlns="http://www.w3.org/2000/svg"><switch transform="translate(-21.169 -20.769) scale(.23362)"><g><path fill="#004e87" d="M312.2 197.3v-33.1h-34.4v33.1h-7.7v-72.5h7.7v32.5h34.4v-32.5h7.7v72.5zm72.6 0-5.8-16.4h-31.6l-5.8 16.4h-8.2l26.7-72.5h6.5l26.6 72.5zm-36-80.3v-9h7.3v9.1h-7.3zm14.5 18.9-13.6 38.3h27.1zm7-18.9v-9h7.3v9.1h-7.3zm82 80.3-38.5-58.1v58.1h-7.7v-72.5h7.3l38.5 57.9v-57.9h7.7v72.5zm68.4-6.7c-4.4 4.4-10.8 6.7-18.3 6.7h-24.8v-72.5h24.8c7.5 0 13.9 2.3 18.3 6.7 7.5 7.5 7.1 18.6 7.1 28.7 0 10.1.4 22.9-7.1 30.4zm-5.4-53.5c-3.8-3.9-8.6-5.3-14.2-5.3h-15.8v58.6h15.8c5.6 0 10.5-1.4 14.2-5.3 5-5.2 4.8-16 4.8-24.8 0-8.9.2-18-4.8-23.2zm28.7 60.2v-72.5h7.7v65.5h37v6.9H544Zm58.3 0v-72.5h45v6.9H610v25.5h31.7v6.9H610v26.2h37.2v6.9h-44.9zm101.7 0-16.5-32.2h-17.4v32.2h-7.7v-72.5h27.8c12.6 0 21.5 7.6 21.5 20.1 0 10.6-6.4 17.5-15.8 19.4l17.2 32.9H704Zm-14.6-65.5h-19.3v26.6h19.3c8.4 0 14.4-4.4 14.4-13.2 0-8.8-5.9-13.4-14.4-13.4zm66.9 65.5h-28.2v-72.5h27.3c12.6 0 21.4 7.2 21.4 19.3 0 7.6-4.6 13.6-10.7 15.9 6.9 2.5 11.8 8.5 11.8 17.2 0 13.2-8.8 20.1-21.6 20.1zm-1.5-65.5h-18.9v25.1h18.9c8 0 14.2-4 14.2-12.6 0-8.7-6.2-12.5-14.2-12.5zm.8 32h-19.7v26.6h19.7c9 0 14.6-5.2 14.6-13.3-.1-8.2-5.7-13.3-14.6-13.3zm63.7 34.1c-14.7 0-25.2-10.1-25.2-24.5v-48.5h7.7v47.9c0 11 6.9 18.2 17.5 18.2s17.6-7.2 17.6-18.2v-47.9h7.7v48.5c0 14.4-10.7 24.5-25.3 24.5zm90.4-.6-38.5-58.1v58.1h-7.7v-72.5h7.3l38.5 57.9v-57.9h7.7v72.5zm70.5-6.7c-4.4 4.4-10.8 6.7-18.3 6.7H937v-72.5h24.8c7.5 0 13.9 2.3 18.3 6.7 7.5 7.5 7.1 18.6 7.1 28.7.1 10.1.5 22.9-7 30.4zm-5.4-53.5c-3.8-3.9-8.6-5.3-14.2-5.3h-15.8v58.6h15.8c5.6 0 10.5-1.4 14.2-5.3 5-5.2 4.8-16 4.8-24.8 0-8.9.2-18-4.8-23.2zM88.9 233.8V132.2c0-23.9 19.4-43.3 43.3-43.3h101.6v101.6c0 23.9-19.4 43.3-43.3 43.3z"/><path fill="#fff" d="M180.7 172.9H165l6-21.6c.8-3.1 1.2-5.7 1.2-8 0-7.9-5.1-9.9-11.7-9.9-9.2 0-15.6 5.6-15.6 5.6l-8.8-12.9s8.8-9.2 24.7-9.2c18.4 0 27.5 10.3 27.5 23.8 0 2.9-.4 5.8-1.2 8.9zM142 150.1l15.6-.1-5.9 21.7c-.8 3.1-1.2 5.7-1.2 8 0 7.9 5.2 9.9 11.7 9.8 9.2 0 15.6-5.7 15.6-5.7l8.9 12.8s-8.8 9.2-24.6 9.3c-18.4.1-27.6-10.1-27.6-23.7 0-2.9.3-5.8 1.2-8.9z"/></g></switch></svg>